<svg width="78" height="78" viewBox="0 0 78 78" fill="none" xmlns="http://www.w3.org/2000/svg">
<circle cx="39" cy="39" r="38" fill="url(#paint0_linear_84_1961)" stroke="url(#paint1_linear_84_1961)" stroke-width="2"/>
<mask id="mask0_84_1961" style="mask-type:alpha" maskUnits="userSpaceOnUse" x="2" y="2" width="74" height="74">
<circle cx="39" cy="39" r="36.5" fill="white" stroke="#9AB0FF"/>
</mask>
<g mask="url(#mask0_84_1961)">
<path fill-rule="evenodd" clip-rule="evenodd" d="M39.0002 38.4545C44.0963 38.4545 48.2275 34.3234 48.2275 29.2273C48.2275 24.1312 44.0963 20 39.0002 20C33.9041 20 29.7729 24.1312 29.7729 29.2273C29.7729 34.3234 33.9041 38.4545 39.0002 38.4545ZM39 103.045C55.0163 103.045 68 90.0617 68 74.0455C68 58.0292 55.0163 45.0455 39 45.0455C22.9837 45.0455 10 58.0292 10 74.0455C10 90.0617 22.9837 103.045 39 103.045Z" fill="url(#paint2_linear_84_1961)"/>
</g>
<defs>
<linearGradient id="paint0_linear_84_1961" x1="39" y1="2" x2="39" y2="76" gradientUnits="userSpaceOnUse">
<stop stop-color="white"/>
<stop offset="1" stop-color="white" stop-opacity="0.67"/>
</linearGradient>
<linearGradient id="paint1_linear_84_1961" x1="39" y1="2" x2="39" y2="85" gradientUnits="userSpaceOnUse">
<stop stop-color="#9AB0FF"/>
<stop offset="1" stop-color="#5C6A99"/>
</linearGradient>
<linearGradient id="paint2_linear_84_1961" x1="39" y1="20" x2="39" y2="129" gradientUnits="userSpaceOnUse">
<stop offset="0.08" stop-color="#9BB6FD"/>
<stop offset="0.275" stop-color="#799DFD"/>
<stop offset="0.49" stop-color="#7086FB"/>
<stop offset="0.67" stop-color="#9494FC"/>
<stop offset="1" stop-color="#8F74FC"/>
</linearGradient>
</defs>
</svg>
